%TF.GenerationSoftware,KiCad,Pcbnew,(6.0.5)*%
%TF.CreationDate,2022-07-23T15:35:45-04:00*%
%TF.ProjectId,circle_clock_design,63697263-6c65-45f6-936c-6f636b5f6465,rev?*%
%TF.SameCoordinates,PX56cacc8PY97b5f08*%
%TF.FileFunction,Legend,Top*%
%TF.FilePolarity,Positive*%
%FSLAX46Y46*%
G04 Gerber Fmt 4.6, Leading zero omitted, Abs format (unit mm)*
G04 Created by KiCad (PCBNEW (6.0.5)) date 2022-07-23 15:35:45*
%MOMM*%
%LPD*%
G01*
G04 APERTURE LIST*
G04 Aperture macros list*
%AMRoundRect*
0 Rectangle with rounded corners*
0 $1 Rounding radius*
0 $2 $3 $4 $5 $6 $7 $8 $9 X,Y pos of 4 corners*
0 Add a 4 corners polygon primitive as box body*
4,1,4,$2,$3,$4,$5,$6,$7,$8,$9,$2,$3,0*
0 Add four circle primitives for the rounded corners*
1,1,$1+$1,$2,$3*
1,1,$1+$1,$4,$5*
1,1,$1+$1,$6,$7*
1,1,$1+$1,$8,$9*
0 Add four rect primitives between the rounded corners*
20,1,$1+$1,$2,$3,$4,$5,0*
20,1,$1+$1,$4,$5,$6,$7,0*
20,1,$1+$1,$6,$7,$8,$9,0*
20,1,$1+$1,$8,$9,$2,$3,0*%
G04 Aperture macros list end*
%ADD10C,0.150000*%
%ADD11C,0.120000*%
%ADD12C,0.250000*%
%ADD13R,1.700000X1.700000*%
%ADD14O,1.700000X1.700000*%
%ADD15R,1.150000X1.400000*%
%ADD16C,3.200000*%
%ADD17C,2.000000*%
%ADD18R,1.600000X1.600000*%
%ADD19O,1.600000X1.600000*%
%ADD20R,1.600000X1.400000*%
%ADD21R,1.000000X1.800000*%
%ADD22R,4.500000X2.000000*%
%ADD23RoundRect,0.243750X-0.243750X-0.456250X0.243750X-0.456250X0.243750X0.456250X-0.243750X0.456250X0*%
%ADD24RoundRect,0.500000X0.500000X-1.750000X0.500000X1.750000X-0.500000X1.750000X-0.500000X-1.750000X0*%
%ADD25RoundRect,0.500000X1.500000X0.500000X-1.500000X0.500000X-1.500000X-0.500000X1.500000X-0.500000X0*%
%ADD26R,1.400000X1.150000*%
%ADD27R,2.200000X1.200000*%
%ADD28R,6.400000X5.800000*%
%ADD29R,1.400000X1.400000*%
%ADD30C,1.400000*%
%ADD31R,3.000000X3.000000*%
%ADD32C,3.000000*%
G04 APERTURE END LIST*
D10*
X61488561Y10220439D02*
X61488561Y12220439D01*
X62631419Y10220439D02*
X61774276Y11363296D01*
X62631419Y12220439D02*
X61488561Y11077581D01*
X63488561Y10220439D02*
X63488561Y12220439D01*
X64345704Y10220439D02*
X64345704Y11268058D01*
X64250466Y11458534D01*
X64059990Y11553772D01*
X63774276Y11553772D01*
X63583800Y11458534D01*
X63488561Y11363296D01*
X66155228Y11553772D02*
X66155228Y10220439D01*
X65298085Y11553772D02*
X65298085Y10506153D01*
X65393323Y10315677D01*
X65583800Y10220439D01*
X65869514Y10220439D01*
X66059990Y10315677D01*
X66155228Y10410915D01*
X67012371Y10315677D02*
X67202847Y10220439D01*
X67583800Y10220439D01*
X67774276Y10315677D01*
X67869514Y10506153D01*
X67869514Y10601391D01*
X67774276Y10791867D01*
X67583800Y10887105D01*
X67298085Y10887105D01*
X67107609Y10982343D01*
X67012371Y11172820D01*
X67012371Y11268058D01*
X67107609Y11458534D01*
X67298085Y11553772D01*
X67583800Y11553772D01*
X67774276Y11458534D01*
X68726657Y10220439D02*
X68726657Y12220439D01*
X69583800Y10220439D02*
X69583800Y11268058D01*
X69488561Y11458534D01*
X69298085Y11553772D01*
X69012371Y11553772D01*
X68821895Y11458534D01*
X68726657Y11363296D01*
X71393323Y10220439D02*
X71393323Y11268058D01*
X71298085Y11458534D01*
X71107609Y11553772D01*
X70726657Y11553772D01*
X70536180Y11458534D01*
X71393323Y10315677D02*
X71202847Y10220439D01*
X70726657Y10220439D01*
X70536180Y10315677D01*
X70440942Y10506153D01*
X70440942Y10696629D01*
X70536180Y10887105D01*
X70726657Y10982343D01*
X71202847Y10982343D01*
X71393323Y11077581D01*
X72631419Y10220439D02*
X72440942Y10315677D01*
X72345704Y10506153D01*
X72345704Y12220439D01*
X73393323Y10220439D02*
X73393323Y11553772D01*
X73393323Y12220439D02*
X73298085Y12125200D01*
X73393323Y12029962D01*
X73488561Y12125200D01*
X73393323Y12220439D01*
X73393323Y12029962D01*
X74440942Y12220439D02*
X74250466Y11839486D01*
X75202847Y10315677D02*
X75393323Y10220439D01*
X75774276Y10220439D01*
X75964752Y10315677D01*
X76059990Y10506153D01*
X76059990Y10601391D01*
X75964752Y10791867D01*
X75774276Y10887105D01*
X75488561Y10887105D01*
X75298085Y10982343D01*
X75202847Y11172820D01*
X75202847Y11268058D01*
X75298085Y11458534D01*
X75488561Y11553772D01*
X75774276Y11553772D01*
X75964752Y11458534D01*
X79583800Y10410915D02*
X79488561Y10315677D01*
X79202847Y10220439D01*
X79012371Y10220439D01*
X78726657Y10315677D01*
X78536180Y10506153D01*
X78440942Y10696629D01*
X78345704Y11077581D01*
X78345704Y11363296D01*
X78440942Y11744248D01*
X78536180Y11934724D01*
X78726657Y12125200D01*
X79012371Y12220439D01*
X79202847Y12220439D01*
X79488561Y12125200D01*
X79583800Y12029962D01*
X80726657Y10220439D02*
X80536180Y10315677D01*
X80440942Y10506153D01*
X80440942Y12220439D01*
X81774276Y10220439D02*
X81583800Y10315677D01*
X81488561Y10410915D01*
X81393323Y10601391D01*
X81393323Y11172820D01*
X81488561Y11363296D01*
X81583800Y11458534D01*
X81774276Y11553772D01*
X82059990Y11553772D01*
X82250466Y11458534D01*
X82345704Y11363296D01*
X82440942Y11172820D01*
X82440942Y10601391D01*
X82345704Y10410915D01*
X82250466Y10315677D01*
X82059990Y10220439D01*
X81774276Y10220439D01*
X84155228Y10315677D02*
X83964752Y10220439D01*
X83583800Y10220439D01*
X83393323Y10315677D01*
X83298085Y10410915D01*
X83202847Y10601391D01*
X83202847Y11172820D01*
X83298085Y11363296D01*
X83393323Y11458534D01*
X83583800Y11553772D01*
X83964752Y11553772D01*
X84155228Y11458534D01*
X85012371Y10220439D02*
X85012371Y12220439D01*
X85202847Y10982343D02*
X85774276Y10220439D01*
X85774276Y11553772D02*
X85012371Y10791867D01*
%TO.C,R4*%
X94813380Y90612934D02*
X94337190Y90279600D01*
X94813380Y90041505D02*
X93813380Y90041505D01*
X93813380Y90422458D01*
X93861000Y90517696D01*
X93908619Y90565315D01*
X94003857Y90612934D01*
X94146714Y90612934D01*
X94241952Y90565315D01*
X94289571Y90517696D01*
X94337190Y90422458D01*
X94337190Y90041505D01*
X94146714Y91470077D02*
X94813380Y91470077D01*
X93765761Y91231981D02*
X94480047Y90993886D01*
X94480047Y91612934D01*
%TO.C,R2*%
X90816133Y95026220D02*
X90482800Y95502410D01*
X90244704Y95026220D02*
X90244704Y96026220D01*
X90625657Y96026220D01*
X90720895Y95978600D01*
X90768514Y95930981D01*
X90816133Y95835743D01*
X90816133Y95692886D01*
X90768514Y95597648D01*
X90720895Y95550029D01*
X90625657Y95502410D01*
X90244704Y95502410D01*
X91197085Y95930981D02*
X91244704Y95978600D01*
X91339942Y96026220D01*
X91578038Y96026220D01*
X91673276Y95978600D01*
X91720895Y95930981D01*
X91768514Y95835743D01*
X91768514Y95740505D01*
X91720895Y95597648D01*
X91149466Y95026220D01*
X91768514Y95026220D01*
%TO.C,C3*%
X56592742Y37806334D02*
X56640361Y37758715D01*
X56687980Y37615858D01*
X56687980Y37520620D01*
X56640361Y37377762D01*
X56545123Y37282524D01*
X56449885Y37234905D01*
X56259409Y37187286D01*
X56116552Y37187286D01*
X55926076Y37234905D01*
X55830838Y37282524D01*
X55735600Y37377762D01*
X55687980Y37520620D01*
X55687980Y37615858D01*
X55735600Y37758715D01*
X55783219Y37806334D01*
X55687980Y38139667D02*
X55687980Y38758715D01*
X56068933Y38425381D01*
X56068933Y38568239D01*
X56116552Y38663477D01*
X56164171Y38711096D01*
X56259409Y38758715D01*
X56497504Y38758715D01*
X56592742Y38711096D01*
X56640361Y38663477D01*
X56687980Y38568239D01*
X56687980Y38282524D01*
X56640361Y38187286D01*
X56592742Y38139667D01*
%TO.C,C2*%
X63550133Y92631258D02*
X63502514Y92583639D01*
X63359657Y92536020D01*
X63264419Y92536020D01*
X63121561Y92583639D01*
X63026323Y92678877D01*
X62978704Y92774115D01*
X62931085Y92964591D01*
X62931085Y93107448D01*
X62978704Y93297924D01*
X63026323Y93393162D01*
X63121561Y93488400D01*
X63264419Y93536020D01*
X63359657Y93536020D01*
X63502514Y93488400D01*
X63550133Y93440781D01*
X63931085Y93440781D02*
X63978704Y93488400D01*
X64073942Y93536020D01*
X64312038Y93536020D01*
X64407276Y93488400D01*
X64454895Y93440781D01*
X64502514Y93345543D01*
X64502514Y93250305D01*
X64454895Y93107448D01*
X63883466Y92536020D01*
X64502514Y92536020D01*
%TO.C,H4*%
X3729895Y62827820D02*
X3729895Y63827820D01*
X3729895Y63351629D02*
X4301323Y63351629D01*
X4301323Y62827820D02*
X4301323Y63827820D01*
X5206085Y63494486D02*
X5206085Y62827820D01*
X4967990Y63875439D02*
X4729895Y63161153D01*
X5348942Y63161153D01*
%TO.C,TP14*%
X62650904Y31476220D02*
X63222333Y31476220D01*
X62936619Y30476220D02*
X62936619Y31476220D01*
X63555666Y30476220D02*
X63555666Y31476220D01*
X63936619Y31476220D01*
X64031857Y31428600D01*
X64079476Y31380981D01*
X64127095Y31285743D01*
X64127095Y31142886D01*
X64079476Y31047648D01*
X64031857Y31000029D01*
X63936619Y30952410D01*
X63555666Y30952410D01*
X65079476Y30476220D02*
X64508047Y30476220D01*
X64793761Y30476220D02*
X64793761Y31476220D01*
X64698523Y31333362D01*
X64603285Y31238124D01*
X64508047Y31190505D01*
X65936619Y31142886D02*
X65936619Y30476220D01*
X65698523Y31523839D02*
X65460428Y30809553D01*
X66079476Y30809553D01*
%TO.C,TP36*%
X90870304Y23856220D02*
X91441733Y23856220D01*
X91156019Y22856220D02*
X91156019Y23856220D01*
X91775066Y22856220D02*
X91775066Y23856220D01*
X92156019Y23856220D01*
X92251257Y23808600D01*
X92298876Y23760981D01*
X92346495Y23665743D01*
X92346495Y23522886D01*
X92298876Y23427648D01*
X92251257Y23380029D01*
X92156019Y23332410D01*
X91775066Y23332410D01*
X92679828Y23856220D02*
X93298876Y23856220D01*
X92965542Y23475267D01*
X93108400Y23475267D01*
X93203638Y23427648D01*
X93251257Y23380029D01*
X93298876Y23284791D01*
X93298876Y23046696D01*
X93251257Y22951458D01*
X93203638Y22903839D01*
X93108400Y22856220D01*
X92822685Y22856220D01*
X92727447Y22903839D01*
X92679828Y22951458D01*
X94156019Y23856220D02*
X93965542Y23856220D01*
X93870304Y23808600D01*
X93822685Y23760981D01*
X93727447Y23618124D01*
X93679828Y23427648D01*
X93679828Y23046696D01*
X93727447Y22951458D01*
X93775066Y22903839D01*
X93870304Y22856220D01*
X94060780Y22856220D01*
X94156019Y22903839D01*
X94203638Y22951458D01*
X94251257Y23046696D01*
X94251257Y23284791D01*
X94203638Y23380029D01*
X94156019Y23427648D01*
X94060780Y23475267D01*
X93870304Y23475267D01*
X93775066Y23427648D01*
X93727447Y23380029D01*
X93679828Y23284791D01*
%TO.C,U4*%
X83743895Y96669820D02*
X83743895Y95860296D01*
X83791514Y95765058D01*
X83839133Y95717439D01*
X83934371Y95669820D01*
X84124847Y95669820D01*
X84220085Y95717439D01*
X84267704Y95765058D01*
X84315323Y95860296D01*
X84315323Y96669820D01*
X85220085Y96336486D02*
X85220085Y95669820D01*
X84981990Y96717439D02*
X84743895Y96003153D01*
X85362942Y96003153D01*
%TO.C,SW4*%
X87998466Y38515439D02*
X88141323Y38467820D01*
X88379419Y38467820D01*
X88474657Y38515439D01*
X88522276Y38563058D01*
X88569895Y38658296D01*
X88569895Y38753534D01*
X88522276Y38848772D01*
X88474657Y38896391D01*
X88379419Y38944010D01*
X88188942Y38991629D01*
X88093704Y39039248D01*
X88046085Y39086867D01*
X87998466Y39182105D01*
X87998466Y39277343D01*
X88046085Y39372581D01*
X88093704Y39420200D01*
X88188942Y39467820D01*
X88427038Y39467820D01*
X88569895Y39420200D01*
X88903228Y39467820D02*
X89141323Y38467820D01*
X89331800Y39182105D01*
X89522276Y38467820D01*
X89760371Y39467820D01*
X90569895Y39134486D02*
X90569895Y38467820D01*
X90331800Y39515439D02*
X90093704Y38801153D01*
X90712752Y38801153D01*
%TO.C,R11*%
X92918942Y43437820D02*
X92585609Y43914010D01*
X92347514Y43437820D02*
X92347514Y44437820D01*
X92728466Y44437820D01*
X92823704Y44390200D01*
X92871323Y44342581D01*
X92918942Y44247343D01*
X92918942Y44104486D01*
X92871323Y44009248D01*
X92823704Y43961629D01*
X92728466Y43914010D01*
X92347514Y43914010D01*
X93871323Y43437820D02*
X93299895Y43437820D01*
X93585609Y43437820D02*
X93585609Y44437820D01*
X93490371Y44294962D01*
X93395133Y44199724D01*
X93299895Y44152105D01*
X94823704Y43437820D02*
X94252276Y43437820D01*
X94537990Y43437820D02*
X94537990Y44437820D01*
X94442752Y44294962D01*
X94347514Y44199724D01*
X94252276Y44152105D01*
%TO.C,U3*%
X39474180Y44028296D02*
X40283704Y44028296D01*
X40378942Y44075915D01*
X40426561Y44123534D01*
X40474180Y44218772D01*
X40474180Y44409248D01*
X40426561Y44504486D01*
X40378942Y44552105D01*
X40283704Y44599724D01*
X39474180Y44599724D01*
X39474180Y44980677D02*
X39474180Y45599724D01*
X39855133Y45266391D01*
X39855133Y45409248D01*
X39902752Y45504486D01*
X39950371Y45552105D01*
X40045609Y45599724D01*
X40283704Y45599724D01*
X40378942Y45552105D01*
X40426561Y45504486D01*
X40474180Y45409248D01*
X40474180Y45123534D01*
X40426561Y45028296D01*
X40378942Y44980677D01*
%TO.C,C6*%
X87072742Y63866734D02*
X87120361Y63819115D01*
X87167980Y63676258D01*
X87167980Y63581020D01*
X87120361Y63438162D01*
X87025123Y63342924D01*
X86929885Y63295305D01*
X86739409Y63247686D01*
X86596552Y63247686D01*
X86406076Y63295305D01*
X86310838Y63342924D01*
X86215600Y63438162D01*
X86167980Y63581020D01*
X86167980Y63676258D01*
X86215600Y63819115D01*
X86263219Y63866734D01*
X86167980Y64723877D02*
X86167980Y64533400D01*
X86215600Y64438162D01*
X86263219Y64390543D01*
X86406076Y64295305D01*
X86596552Y64247686D01*
X86977504Y64247686D01*
X87072742Y64295305D01*
X87120361Y64342924D01*
X87167980Y64438162D01*
X87167980Y64628639D01*
X87120361Y64723877D01*
X87072742Y64771496D01*
X86977504Y64819115D01*
X86739409Y64819115D01*
X86644171Y64771496D01*
X86596552Y64723877D01*
X86548933Y64628639D01*
X86548933Y64438162D01*
X86596552Y64342924D01*
X86644171Y64295305D01*
X86739409Y64247686D01*
%TO.C,Y2*%
X78695609Y101999010D02*
X78695609Y101522820D01*
X78362276Y102522820D02*
X78695609Y101999010D01*
X79028942Y102522820D01*
X79314657Y102427581D02*
X79362276Y102475200D01*
X79457514Y102522820D01*
X79695609Y102522820D01*
X79790847Y102475200D01*
X79838466Y102427581D01*
X79886085Y102332343D01*
X79886085Y102237105D01*
X79838466Y102094248D01*
X79267038Y101522820D01*
X79886085Y101522820D01*
%TO.C,C4*%
X50557133Y50901058D02*
X50509514Y50853439D01*
X50366657Y50805820D01*
X50271419Y50805820D01*
X50128561Y50853439D01*
X50033323Y50948677D01*
X49985704Y51043915D01*
X49938085Y51234391D01*
X49938085Y51377248D01*
X49985704Y51567724D01*
X50033323Y51662962D01*
X50128561Y51758200D01*
X50271419Y51805820D01*
X50366657Y51805820D01*
X50509514Y51758200D01*
X50557133Y51710581D01*
X51414276Y51472486D02*
X51414276Y50805820D01*
X51176180Y51853439D02*
X50938085Y51139153D01*
X51557133Y51139153D01*
%TO.C,TP15*%
X99252304Y39782020D02*
X99823733Y39782020D01*
X99538019Y38782020D02*
X99538019Y39782020D01*
X100157066Y38782020D02*
X100157066Y39782020D01*
X100538019Y39782020D01*
X100633257Y39734400D01*
X100680876Y39686781D01*
X100728495Y39591543D01*
X100728495Y39448686D01*
X100680876Y39353448D01*
X100633257Y39305829D01*
X100538019Y39258210D01*
X100157066Y39258210D01*
X101680876Y38782020D02*
X101109447Y38782020D01*
X101395161Y38782020D02*
X101395161Y39782020D01*
X101299923Y39639162D01*
X101204685Y39543924D01*
X101109447Y39496305D01*
X102585638Y39782020D02*
X102109447Y39782020D01*
X102061828Y39305829D01*
X102109447Y39353448D01*
X102204685Y39401067D01*
X102442780Y39401067D01*
X102538019Y39353448D01*
X102585638Y39305829D01*
X102633257Y39210591D01*
X102633257Y38972496D01*
X102585638Y38877258D01*
X102538019Y38829639D01*
X102442780Y38782020D01*
X102204685Y38782020D01*
X102109447Y38829639D01*
X102061828Y38877258D01*
%TO.C,Y1*%
X67265609Y31094010D02*
X67265609Y30617820D01*
X66932276Y31617820D02*
X67265609Y31094010D01*
X67598942Y31617820D01*
X68456085Y30617820D02*
X67884657Y30617820D01*
X68170371Y30617820D02*
X68170371Y31617820D01*
X68075133Y31474962D01*
X67979895Y31379724D01*
X67884657Y31332105D01*
%TO.C,R10*%
X60113942Y17402820D02*
X59780609Y17879010D01*
X59542514Y17402820D02*
X59542514Y18402820D01*
X59923466Y18402820D01*
X60018704Y18355200D01*
X60066323Y18307581D01*
X60113942Y18212343D01*
X60113942Y18069486D01*
X60066323Y17974248D01*
X60018704Y17926629D01*
X59923466Y17879010D01*
X59542514Y17879010D01*
X61066323Y17402820D02*
X60494895Y17402820D01*
X60780609Y17402820D02*
X60780609Y18402820D01*
X60685371Y18259962D01*
X60590133Y18164724D01*
X60494895Y18117105D01*
X61685371Y18402820D02*
X61780609Y18402820D01*
X61875847Y18355200D01*
X61923466Y18307581D01*
X61971085Y18212343D01*
X62018704Y18021867D01*
X62018704Y17783772D01*
X61971085Y17593296D01*
X61923466Y17498058D01*
X61875847Y17450439D01*
X61780609Y17402820D01*
X61685371Y17402820D01*
X61590133Y17450439D01*
X61542514Y17498058D01*
X61494895Y17593296D01*
X61447276Y17783772D01*
X61447276Y18021867D01*
X61494895Y18212343D01*
X61542514Y18307581D01*
X61590133Y18355200D01*
X61685371Y18402820D01*
%TO.C,R7*%
X55637133Y24897820D02*
X55303800Y25374010D01*
X55065704Y24897820D02*
X55065704Y25897820D01*
X55446657Y25897820D01*
X55541895Y25850200D01*
X55589514Y25802581D01*
X55637133Y25707343D01*
X55637133Y25564486D01*
X55589514Y25469248D01*
X55541895Y25421629D01*
X55446657Y25374010D01*
X55065704Y25374010D01*
X55970466Y25897820D02*
X56637133Y25897820D01*
X56208561Y24897820D01*
%TO.C,TP21*%
X25592304Y44887420D02*
X26163733Y44887420D01*
X25878019Y43887420D02*
X25878019Y44887420D01*
X26497066Y43887420D02*
X26497066Y44887420D01*
X26878019Y44887420D01*
X26973257Y44839800D01*
X27020876Y44792181D01*
X27068495Y44696943D01*
X27068495Y44554086D01*
X27020876Y44458848D01*
X26973257Y44411229D01*
X26878019Y44363610D01*
X26497066Y44363610D01*
X27449447Y44792181D02*
X27497066Y44839800D01*
X27592304Y44887420D01*
X27830400Y44887420D01*
X27925638Y44839800D01*
X27973257Y44792181D01*
X28020876Y44696943D01*
X28020876Y44601705D01*
X27973257Y44458848D01*
X27401828Y43887420D01*
X28020876Y43887420D01*
X28973257Y43887420D02*
X28401828Y43887420D01*
X28687542Y43887420D02*
X28687542Y44887420D01*
X28592304Y44744562D01*
X28497066Y44649324D01*
X28401828Y44601705D01*
%TO.C,TP20*%
X29630904Y52101020D02*
X30202333Y52101020D01*
X29916619Y51101020D02*
X29916619Y52101020D01*
X30535666Y51101020D02*
X30535666Y52101020D01*
X30916619Y52101020D01*
X31011857Y52053400D01*
X31059476Y52005781D01*
X31107095Y51910543D01*
X31107095Y51767686D01*
X31059476Y51672448D01*
X31011857Y51624829D01*
X30916619Y51577210D01*
X30535666Y51577210D01*
X31488047Y52005781D02*
X31535666Y52053400D01*
X31630904Y52101020D01*
X31869000Y52101020D01*
X31964238Y52053400D01*
X32011857Y52005781D01*
X32059476Y51910543D01*
X32059476Y51815305D01*
X32011857Y51672448D01*
X31440428Y51101020D01*
X32059476Y51101020D01*
X32678523Y52101020D02*
X32773761Y52101020D01*
X32869000Y52053400D01*
X32916619Y52005781D01*
X32964238Y51910543D01*
X33011857Y51720067D01*
X33011857Y51481972D01*
X32964238Y51291496D01*
X32916619Y51196258D01*
X32869000Y51148639D01*
X32773761Y51101020D01*
X32678523Y51101020D01*
X32583285Y51148639D01*
X32535666Y51196258D01*
X32488047Y51291496D01*
X32440428Y51481972D01*
X32440428Y51720067D01*
X32488047Y51910543D01*
X32535666Y52005781D01*
X32583285Y52053400D01*
X32678523Y52101020D01*
%TO.C,TP10*%
X41899104Y15753620D02*
X42470533Y15753620D01*
X42184819Y14753620D02*
X42184819Y15753620D01*
X42803866Y14753620D02*
X42803866Y15753620D01*
X43184819Y15753620D01*
X43280057Y15706000D01*
X43327676Y15658381D01*
X43375295Y15563143D01*
X43375295Y15420286D01*
X43327676Y15325048D01*
X43280057Y15277429D01*
X43184819Y15229810D01*
X42803866Y15229810D01*
X44327676Y14753620D02*
X43756247Y14753620D01*
X44041961Y14753620D02*
X44041961Y15753620D01*
X43946723Y15610762D01*
X43851485Y15515524D01*
X43756247Y15467905D01*
X44946723Y15753620D02*
X45041961Y15753620D01*
X45137200Y15706000D01*
X45184819Y15658381D01*
X45232438Y15563143D01*
X45280057Y15372667D01*
X45280057Y15134572D01*
X45232438Y14944096D01*
X45184819Y14848858D01*
X45137200Y14801239D01*
X45041961Y14753620D01*
X44946723Y14753620D01*
X44851485Y14801239D01*
X44803866Y14848858D01*
X44756247Y14944096D01*
X44708628Y15134572D01*
X44708628Y15372667D01*
X44756247Y15563143D01*
X44803866Y15658381D01*
X44851485Y15706000D01*
X44946723Y15753620D01*
%TO.C,D1*%
X100864204Y44453820D02*
X100864204Y45453820D01*
X101102300Y45453820D01*
X101245157Y45406200D01*
X101340395Y45310962D01*
X101388014Y45215724D01*
X101435633Y45025248D01*
X101435633Y44882391D01*
X101388014Y44691915D01*
X101340395Y44596677D01*
X101245157Y44501439D01*
X101102300Y44453820D01*
X100864204Y44453820D01*
X102388014Y44453820D02*
X101816585Y44453820D01*
X102102300Y44453820D02*
X102102300Y45453820D01*
X102007061Y45310962D01*
X101911823Y45215724D01*
X101816585Y45168105D01*
%TO.C,TP8*%
X44712095Y30485620D02*
X45283523Y30485620D01*
X44997809Y29485620D02*
X44997809Y30485620D01*
X45616857Y29485620D02*
X45616857Y30485620D01*
X45997809Y30485620D01*
X46093047Y30438000D01*
X46140666Y30390381D01*
X46188285Y30295143D01*
X46188285Y30152286D01*
X46140666Y30057048D01*
X46093047Y30009429D01*
X45997809Y29961810D01*
X45616857Y29961810D01*
X46759714Y30057048D02*
X46664476Y30104667D01*
X46616857Y30152286D01*
X46569238Y30247524D01*
X46569238Y30295143D01*
X46616857Y30390381D01*
X46664476Y30438000D01*
X46759714Y30485620D01*
X46950190Y30485620D01*
X47045428Y30438000D01*
X47093047Y30390381D01*
X47140666Y30295143D01*
X47140666Y30247524D01*
X47093047Y30152286D01*
X47045428Y30104667D01*
X46950190Y30057048D01*
X46759714Y30057048D01*
X46664476Y30009429D01*
X46616857Y29961810D01*
X46569238Y29866572D01*
X46569238Y29676096D01*
X46616857Y29580858D01*
X46664476Y29533239D01*
X46759714Y29485620D01*
X46950190Y29485620D01*
X47045428Y29533239D01*
X47093047Y29580858D01*
X47140666Y29676096D01*
X47140666Y29866572D01*
X47093047Y29961810D01*
X47045428Y30009429D01*
X46950190Y30057048D01*
%TO.C,SW1*%
X27038466Y38515439D02*
X27181323Y38467820D01*
X27419419Y38467820D01*
X27514657Y38515439D01*
X27562276Y38563058D01*
X27609895Y38658296D01*
X27609895Y38753534D01*
X27562276Y38848772D01*
X27514657Y38896391D01*
X27419419Y38944010D01*
X27228942Y38991629D01*
X27133704Y39039248D01*
X27086085Y39086867D01*
X27038466Y39182105D01*
X27038466Y39277343D01*
X27086085Y39372581D01*
X27133704Y39420200D01*
X27228942Y39467820D01*
X27467038Y39467820D01*
X27609895Y39420200D01*
X27943228Y39467820D02*
X28181323Y38467820D01*
X28371800Y39182105D01*
X28562276Y38467820D01*
X28800371Y39467820D01*
X29705133Y38467820D02*
X29133704Y38467820D01*
X29419419Y38467820D02*
X29419419Y39467820D01*
X29324180Y39324962D01*
X29228942Y39229724D01*
X29133704Y39182105D01*
%TO.C,C11*%
X20108942Y46073058D02*
X20061323Y46025439D01*
X19918466Y45977820D01*
X19823228Y45977820D01*
X19680371Y46025439D01*
X19585133Y46120677D01*
X19537514Y46215915D01*
X19489895Y46406391D01*
X19489895Y46549248D01*
X19537514Y46739724D01*
X19585133Y46834962D01*
X19680371Y46930200D01*
X19823228Y46977820D01*
X19918466Y46977820D01*
X20061323Y46930200D01*
X20108942Y46882581D01*
X21061323Y45977820D02*
X20489895Y45977820D01*
X20775609Y45977820D02*
X20775609Y46977820D01*
X20680371Y46834962D01*
X20585133Y46739724D01*
X20489895Y46692105D01*
X22013704Y45977820D02*
X21442276Y45977820D01*
X21727990Y45977820D02*
X21727990Y46977820D01*
X21632752Y46834962D01*
X21537514Y46739724D01*
X21442276Y46692105D01*
%TO.C,H2*%
X112729895Y62827820D02*
X112729895Y63827820D01*
X112729895Y63351629D02*
X113301323Y63351629D01*
X113301323Y62827820D02*
X113301323Y63827820D01*
X113729895Y63732581D02*
X113777514Y63780200D01*
X113872752Y63827820D01*
X114110847Y63827820D01*
X114206085Y63780200D01*
X114253704Y63732581D01*
X114301323Y63637343D01*
X114301323Y63542105D01*
X114253704Y63399248D01*
X113682276Y62827820D01*
X114301323Y62827820D01*
%TO.C,C8*%
X36333133Y15341058D02*
X36285514Y15293439D01*
X36142657Y15245820D01*
X36047419Y15245820D01*
X35904561Y15293439D01*
X35809323Y15388677D01*
X35761704Y15483915D01*
X35714085Y15674391D01*
X35714085Y15817248D01*
X35761704Y16007724D01*
X35809323Y16102962D01*
X35904561Y16198200D01*
X36047419Y16245820D01*
X36142657Y16245820D01*
X36285514Y16198200D01*
X36333133Y16150581D01*
X36904561Y15817248D02*
X36809323Y15864867D01*
X36761704Y15912486D01*
X36714085Y16007724D01*
X36714085Y16055343D01*
X36761704Y16150581D01*
X36809323Y16198200D01*
X36904561Y16245820D01*
X37095038Y16245820D01*
X37190276Y16198200D01*
X37237895Y16150581D01*
X37285514Y16055343D01*
X37285514Y16007724D01*
X37237895Y15912486D01*
X37190276Y15864867D01*
X37095038Y15817248D01*
X36904561Y15817248D01*
X36809323Y15769629D01*
X36761704Y15722010D01*
X36714085Y15626772D01*
X36714085Y15436296D01*
X36761704Y15341058D01*
X36809323Y15293439D01*
X36904561Y15245820D01*
X37095038Y15245820D01*
X37190276Y15293439D01*
X37237895Y15341058D01*
X37285514Y15436296D01*
X37285514Y15626772D01*
X37237895Y15722010D01*
X37190276Y15769629D01*
X37095038Y15817248D01*
%TO.C,SW2*%
X46850466Y25554039D02*
X46993323Y25506420D01*
X47231419Y25506420D01*
X47326657Y25554039D01*
X47374276Y25601658D01*
X47421895Y25696896D01*
X47421895Y25792134D01*
X47374276Y25887372D01*
X47326657Y25934991D01*
X47231419Y25982610D01*
X47040942Y26030229D01*
X46945704Y26077848D01*
X46898085Y26125467D01*
X46850466Y26220705D01*
X46850466Y26315943D01*
X46898085Y26411181D01*
X46945704Y26458800D01*
X47040942Y26506420D01*
X47279038Y26506420D01*
X47421895Y26458800D01*
X47755228Y26506420D02*
X47993323Y25506420D01*
X48183800Y26220705D01*
X48374276Y25506420D01*
X48612371Y26506420D01*
X48945704Y26411181D02*
X48993323Y26458800D01*
X49088561Y26506420D01*
X49326657Y26506420D01*
X49421895Y26458800D01*
X49469514Y26411181D01*
X49517133Y26315943D01*
X49517133Y26220705D01*
X49469514Y26077848D01*
X48898085Y25506420D01*
X49517133Y25506420D01*
%TO.C,H3*%
X58229895Y8327820D02*
X58229895Y9327820D01*
X58229895Y8851629D02*
X58801323Y8851629D01*
X58801323Y8327820D02*
X58801323Y9327820D01*
X59182276Y9327820D02*
X59801323Y9327820D01*
X59467990Y8946867D01*
X59610847Y8946867D01*
X59706085Y8899248D01*
X59753704Y8851629D01*
X59801323Y8756391D01*
X59801323Y8518296D01*
X59753704Y8423058D01*
X59706085Y8375439D01*
X59610847Y8327820D01*
X59325133Y8327820D01*
X59229895Y8375439D01*
X59182276Y8423058D01*
%TO.C,SW3*%
X70218466Y25815439D02*
X70361323Y25767820D01*
X70599419Y25767820D01*
X70694657Y25815439D01*
X70742276Y25863058D01*
X70789895Y25958296D01*
X70789895Y26053534D01*
X70742276Y26148772D01*
X70694657Y26196391D01*
X70599419Y26244010D01*
X70408942Y26291629D01*
X70313704Y26339248D01*
X70266085Y26386867D01*
X70218466Y26482105D01*
X70218466Y26577343D01*
X70266085Y26672581D01*
X70313704Y26720200D01*
X70408942Y26767820D01*
X70647038Y26767820D01*
X70789895Y26720200D01*
X71123228Y26767820D02*
X71361323Y25767820D01*
X71551800Y26482105D01*
X71742276Y25767820D01*
X71980371Y26767820D01*
X72266085Y26767820D02*
X72885133Y26767820D01*
X72551800Y26386867D01*
X72694657Y26386867D01*
X72789895Y26339248D01*
X72837514Y26291629D01*
X72885133Y26196391D01*
X72885133Y25958296D01*
X72837514Y25863058D01*
X72789895Y25815439D01*
X72694657Y25767820D01*
X72408942Y25767820D01*
X72313704Y25815439D01*
X72266085Y25863058D01*
%TO.C,TP2*%
X104910095Y60076620D02*
X105481523Y60076620D01*
X105195809Y59076620D02*
X105195809Y60076620D01*
X105814857Y59076620D02*
X105814857Y60076620D01*
X106195809Y60076620D01*
X106291047Y60029000D01*
X106338666Y59981381D01*
X106386285Y59886143D01*
X106386285Y59743286D01*
X106338666Y59648048D01*
X106291047Y59600429D01*
X106195809Y59552810D01*
X105814857Y59552810D01*
X106767238Y59981381D02*
X106814857Y60029000D01*
X106910095Y60076620D01*
X107148190Y60076620D01*
X107243428Y60029000D01*
X107291047Y59981381D01*
X107338666Y59886143D01*
X107338666Y59790905D01*
X107291047Y59648048D01*
X106719619Y59076620D01*
X107338666Y59076620D01*
%TO.C,C10*%
X58462942Y31711258D02*
X58415323Y31663639D01*
X58272466Y31616020D01*
X58177228Y31616020D01*
X58034371Y31663639D01*
X57939133Y31758877D01*
X57891514Y31854115D01*
X57843895Y32044591D01*
X57843895Y32187448D01*
X57891514Y32377924D01*
X57939133Y32473162D01*
X58034371Y32568400D01*
X58177228Y32616020D01*
X58272466Y32616020D01*
X58415323Y32568400D01*
X58462942Y32520781D01*
X59415323Y31616020D02*
X58843895Y31616020D01*
X59129609Y31616020D02*
X59129609Y32616020D01*
X59034371Y32473162D01*
X58939133Y32377924D01*
X58843895Y32330305D01*
X60034371Y32616020D02*
X60129609Y32616020D01*
X60224847Y32568400D01*
X60272466Y32520781D01*
X60320085Y32425543D01*
X60367704Y32235067D01*
X60367704Y31996972D01*
X60320085Y31806496D01*
X60272466Y31711258D01*
X60224847Y31663639D01*
X60129609Y31616020D01*
X60034371Y31616020D01*
X59939133Y31663639D01*
X59891514Y31711258D01*
X59843895Y31806496D01*
X59796276Y31996972D01*
X59796276Y32235067D01*
X59843895Y32425543D01*
X59891514Y32520781D01*
X59939133Y32568400D01*
X60034371Y32616020D01*
%TO.C,H1*%
X52979895Y113077820D02*
X52979895Y114077820D01*
X52979895Y113601629D02*
X53551323Y113601629D01*
X53551323Y113077820D02*
X53551323Y114077820D01*
X54551323Y113077820D02*
X53979895Y113077820D01*
X54265609Y113077820D02*
X54265609Y114077820D01*
X54170371Y113934962D01*
X54075133Y113839724D01*
X53979895Y113792105D01*
%TO.C,TP6*%
X85783895Y100615020D02*
X86355323Y100615020D01*
X86069609Y99615020D02*
X86069609Y100615020D01*
X86688657Y99615020D02*
X86688657Y100615020D01*
X87069609Y100615020D01*
X87164847Y100567400D01*
X87212466Y100519781D01*
X87260085Y100424543D01*
X87260085Y100281686D01*
X87212466Y100186448D01*
X87164847Y100138829D01*
X87069609Y100091210D01*
X86688657Y100091210D01*
X88117228Y100615020D02*
X87926752Y100615020D01*
X87831514Y100567400D01*
X87783895Y100519781D01*
X87688657Y100376924D01*
X87641038Y100186448D01*
X87641038Y99805496D01*
X87688657Y99710258D01*
X87736276Y99662639D01*
X87831514Y99615020D01*
X88021990Y99615020D01*
X88117228Y99662639D01*
X88164847Y99710258D01*
X88212466Y99805496D01*
X88212466Y100043591D01*
X88164847Y100138829D01*
X88117228Y100186448D01*
X88021990Y100234067D01*
X87831514Y100234067D01*
X87736276Y100186448D01*
X87688657Y100138829D01*
X87641038Y100043591D01*
%TO.C,C14*%
X23156942Y75285058D02*
X23109323Y75237439D01*
X22966466Y75189820D01*
X22871228Y75189820D01*
X22728371Y75237439D01*
X22633133Y75332677D01*
X22585514Y75427915D01*
X22537895Y75618391D01*
X22537895Y75761248D01*
X22585514Y75951724D01*
X22633133Y76046962D01*
X22728371Y76142200D01*
X22871228Y76189820D01*
X22966466Y76189820D01*
X23109323Y76142200D01*
X23156942Y76094581D01*
X24109323Y75189820D02*
X23537895Y75189820D01*
X23823609Y75189820D02*
X23823609Y76189820D01*
X23728371Y76046962D01*
X23633133Y75951724D01*
X23537895Y75904105D01*
X24966466Y75856486D02*
X24966466Y75189820D01*
X24728371Y76237439D02*
X24490276Y75523153D01*
X25109323Y75523153D01*
%TO.C,TP24*%
X51093904Y105999820D02*
X51665333Y105999820D01*
X51379619Y104999820D02*
X51379619Y105999820D01*
X51998666Y104999820D02*
X51998666Y105999820D01*
X52379619Y105999820D01*
X52474857Y105952200D01*
X52522476Y105904581D01*
X52570095Y105809343D01*
X52570095Y105666486D01*
X52522476Y105571248D01*
X52474857Y105523629D01*
X52379619Y105476010D01*
X51998666Y105476010D01*
X52951047Y105904581D02*
X52998666Y105952200D01*
X53093904Y105999820D01*
X53332000Y105999820D01*
X53427238Y105952200D01*
X53474857Y105904581D01*
X53522476Y105809343D01*
X53522476Y105714105D01*
X53474857Y105571248D01*
X52903428Y104999820D01*
X53522476Y104999820D01*
X54379619Y105666486D02*
X54379619Y104999820D01*
X54141523Y106047439D02*
X53903428Y105333153D01*
X54522476Y105333153D01*
%TO.C,U2*%
X69545295Y88558620D02*
X69545295Y87749096D01*
X69592914Y87653858D01*
X69640533Y87606239D01*
X69735771Y87558620D01*
X69926247Y87558620D01*
X70021485Y87606239D01*
X70069104Y87653858D01*
X70116723Y87749096D01*
X70116723Y88558620D01*
X70545295Y88463381D02*
X70592914Y88511000D01*
X70688152Y88558620D01*
X70926247Y88558620D01*
X71021485Y88511000D01*
X71069104Y88463381D01*
X71116723Y88368143D01*
X71116723Y88272905D01*
X71069104Y88130048D01*
X70497676Y87558620D01*
X71116723Y87558620D01*
%TO.C,R1*%
X87269580Y66254334D02*
X86793390Y65921000D01*
X87269580Y65682905D02*
X86269580Y65682905D01*
X86269580Y66063858D01*
X86317200Y66159096D01*
X86364819Y66206715D01*
X86460057Y66254334D01*
X86602914Y66254334D01*
X86698152Y66206715D01*
X86745771Y66159096D01*
X86793390Y66063858D01*
X86793390Y65682905D01*
X87269580Y67206715D02*
X87269580Y66635286D01*
X87269580Y66921000D02*
X86269580Y66921000D01*
X86412438Y66825762D01*
X86507676Y66730524D01*
X86555295Y66635286D01*
%TO.C,R3*%
X30071133Y24641820D02*
X29737800Y25118010D01*
X29499704Y24641820D02*
X29499704Y25641820D01*
X29880657Y25641820D01*
X29975895Y25594200D01*
X30023514Y25546581D01*
X30071133Y25451343D01*
X30071133Y25308486D01*
X30023514Y25213248D01*
X29975895Y25165629D01*
X29880657Y25118010D01*
X29499704Y25118010D01*
X30404466Y25641820D02*
X31023514Y25641820D01*
X30690180Y25260867D01*
X30833038Y25260867D01*
X30928276Y25213248D01*
X30975895Y25165629D01*
X31023514Y25070391D01*
X31023514Y24832296D01*
X30975895Y24737058D01*
X30928276Y24689439D01*
X30833038Y24641820D01*
X30547323Y24641820D01*
X30452085Y24689439D01*
X30404466Y24737058D01*
%TO.C,R8*%
X22617133Y65029820D02*
X22283800Y65506010D01*
X22045704Y65029820D02*
X22045704Y66029820D01*
X22426657Y66029820D01*
X22521895Y65982200D01*
X22569514Y65934581D01*
X22617133Y65839343D01*
X22617133Y65696486D01*
X22569514Y65601248D01*
X22521895Y65553629D01*
X22426657Y65506010D01*
X22045704Y65506010D01*
X23188561Y65601248D02*
X23093323Y65648867D01*
X23045704Y65696486D01*
X22998085Y65791724D01*
X22998085Y65839343D01*
X23045704Y65934581D01*
X23093323Y65982200D01*
X23188561Y66029820D01*
X23379038Y66029820D01*
X23474276Y65982200D01*
X23521895Y65934581D01*
X23569514Y65839343D01*
X23569514Y65791724D01*
X23521895Y65696486D01*
X23474276Y65648867D01*
X23379038Y65601248D01*
X23188561Y65601248D01*
X23093323Y65553629D01*
X23045704Y65506010D01*
X22998085Y65410772D01*
X22998085Y65220296D01*
X23045704Y65125058D01*
X23093323Y65077439D01*
X23188561Y65029820D01*
X23379038Y65029820D01*
X23474276Y65077439D01*
X23521895Y65125058D01*
X23569514Y65220296D01*
X23569514Y65410772D01*
X23521895Y65506010D01*
X23474276Y65553629D01*
X23379038Y65601248D01*
%TO.C,R6*%
X91197133Y27181820D02*
X90863800Y27658010D01*
X90625704Y27181820D02*
X90625704Y28181820D01*
X91006657Y28181820D01*
X91101895Y28134200D01*
X91149514Y28086581D01*
X91197133Y27991343D01*
X91197133Y27848486D01*
X91149514Y27753248D01*
X91101895Y27705629D01*
X91006657Y27658010D01*
X90625704Y27658010D01*
X92054276Y28181820D02*
X91863800Y28181820D01*
X91768561Y28134200D01*
X91720942Y28086581D01*
X91625704Y27943724D01*
X91578085Y27753248D01*
X91578085Y27372296D01*
X91625704Y27277058D01*
X91673323Y27229439D01*
X91768561Y27181820D01*
X91959038Y27181820D01*
X92054276Y27229439D01*
X92101895Y27277058D01*
X92149514Y27372296D01*
X92149514Y27610391D01*
X92101895Y27705629D01*
X92054276Y27753248D01*
X91959038Y27800867D01*
X91768561Y27800867D01*
X91673323Y27753248D01*
X91625704Y27705629D01*
X91578085Y27610391D01*
%TO.C,TP34*%
X29326104Y74690220D02*
X29897533Y74690220D01*
X29611819Y73690220D02*
X29611819Y74690220D01*
X30230866Y73690220D02*
X30230866Y74690220D01*
X30611819Y74690220D01*
X30707057Y74642600D01*
X30754676Y74594981D01*
X30802295Y74499743D01*
X30802295Y74356886D01*
X30754676Y74261648D01*
X30707057Y74214029D01*
X30611819Y74166410D01*
X30230866Y74166410D01*
X31135628Y74690220D02*
X31754676Y74690220D01*
X31421342Y74309267D01*
X31564200Y74309267D01*
X31659438Y74261648D01*
X31707057Y74214029D01*
X31754676Y74118791D01*
X31754676Y73880696D01*
X31707057Y73785458D01*
X31659438Y73737839D01*
X31564200Y73690220D01*
X31278485Y73690220D01*
X31183247Y73737839D01*
X31135628Y73785458D01*
X32611819Y74356886D02*
X32611819Y73690220D01*
X32373723Y74737839D02*
X32135628Y74023553D01*
X32754676Y74023553D01*
%TO.C,C1*%
X86996542Y61580734D02*
X87044161Y61533115D01*
X87091780Y61390258D01*
X87091780Y61295020D01*
X87044161Y61152162D01*
X86948923Y61056924D01*
X86853685Y61009305D01*
X86663209Y60961686D01*
X86520352Y60961686D01*
X86329876Y61009305D01*
X86234638Y61056924D01*
X86139400Y61152162D01*
X86091780Y61295020D01*
X86091780Y61390258D01*
X86139400Y61533115D01*
X86187019Y61580734D01*
X87091780Y62533115D02*
X87091780Y61961686D01*
X87091780Y62247400D02*
X86091780Y62247400D01*
X86234638Y62152162D01*
X86329876Y62056924D01*
X86377495Y61961686D01*
%TO.C,DS1*%
X33279180Y58350796D02*
X32279180Y58350796D01*
X32279180Y58588891D01*
X32326800Y58731748D01*
X32422038Y58826986D01*
X32517276Y58874605D01*
X32707752Y58922224D01*
X32850609Y58922224D01*
X33041085Y58874605D01*
X33136323Y58826986D01*
X33231561Y58731748D01*
X33279180Y58588891D01*
X33279180Y58350796D01*
X33231561Y59303177D02*
X33279180Y59446034D01*
X33279180Y59684129D01*
X33231561Y59779367D01*
X33183942Y59826986D01*
X33088704Y59874605D01*
X32993466Y59874605D01*
X32898228Y59826986D01*
X32850609Y59779367D01*
X32802990Y59684129D01*
X32755371Y59493653D01*
X32707752Y59398415D01*
X32660133Y59350796D01*
X32564895Y59303177D01*
X32469657Y59303177D01*
X32374419Y59350796D01*
X32326800Y59398415D01*
X32279180Y59493653D01*
X32279180Y59731748D01*
X32326800Y59874605D01*
X33279180Y60826986D02*
X33279180Y60255558D01*
X33279180Y60541272D02*
X32279180Y60541272D01*
X32422038Y60446034D01*
X32517276Y60350796D01*
X32564895Y60255558D01*
%TO.C,C13*%
X18242942Y39977058D02*
X18195323Y39929439D01*
X18052466Y39881820D01*
X17957228Y39881820D01*
X17814371Y39929439D01*
X17719133Y40024677D01*
X17671514Y40119915D01*
X17623895Y40310391D01*
X17623895Y40453248D01*
X17671514Y40643724D01*
X17719133Y40738962D01*
X17814371Y40834200D01*
X17957228Y40881820D01*
X18052466Y40881820D01*
X18195323Y40834200D01*
X18242942Y40786581D01*
X19195323Y39881820D02*
X18623895Y39881820D01*
X18909609Y39881820D02*
X18909609Y40881820D01*
X18814371Y40738962D01*
X18719133Y40643724D01*
X18623895Y40596105D01*
X19528657Y40881820D02*
X20147704Y40881820D01*
X19814371Y40500867D01*
X19957228Y40500867D01*
X20052466Y40453248D01*
X20100085Y40405629D01*
X20147704Y40310391D01*
X20147704Y40072296D01*
X20100085Y39977058D01*
X20052466Y39929439D01*
X19957228Y39881820D01*
X19671514Y39881820D01*
X19576276Y39929439D01*
X19528657Y39977058D01*
%TO.C,TP5*%
X58224895Y107142820D02*
X58796323Y107142820D01*
X58510609Y106142820D02*
X58510609Y107142820D01*
X59129657Y106142820D02*
X59129657Y107142820D01*
X59510609Y107142820D01*
X59605847Y107095200D01*
X59653466Y107047581D01*
X59701085Y106952343D01*
X59701085Y106809486D01*
X59653466Y106714248D01*
X59605847Y106666629D01*
X59510609Y106619010D01*
X59129657Y106619010D01*
X60605847Y107142820D02*
X60129657Y107142820D01*
X60082038Y106666629D01*
X60129657Y106714248D01*
X60224895Y106761867D01*
X60462990Y106761867D01*
X60558228Y106714248D01*
X60605847Y106666629D01*
X60653466Y106571391D01*
X60653466Y106333296D01*
X60605847Y106238058D01*
X60558228Y106190439D01*
X60462990Y106142820D01*
X60224895Y106142820D01*
X60129657Y106190439D01*
X60082038Y106238058D01*
%TO.C,U1*%
X95427895Y48834820D02*
X95427895Y48025296D01*
X95475514Y47930058D01*
X95523133Y47882439D01*
X95618371Y47834820D01*
X95808847Y47834820D01*
X95904085Y47882439D01*
X95951704Y47930058D01*
X95999323Y48025296D01*
X95999323Y48834820D01*
X96999323Y47834820D02*
X96427895Y47834820D01*
X96713609Y47834820D02*
X96713609Y48834820D01*
X96618371Y48691962D01*
X96523133Y48596724D01*
X96427895Y48549105D01*
%TO.C,C12*%
X27728942Y52425058D02*
X27681323Y52377439D01*
X27538466Y52329820D01*
X27443228Y52329820D01*
X27300371Y52377439D01*
X27205133Y52472677D01*
X27157514Y52567915D01*
X27109895Y52758391D01*
X27109895Y52901248D01*
X27157514Y53091724D01*
X27205133Y53186962D01*
X27300371Y53282200D01*
X27443228Y53329820D01*
X27538466Y53329820D01*
X27681323Y53282200D01*
X27728942Y53234581D01*
X28681323Y52329820D02*
X28109895Y52329820D01*
X28395609Y52329820D02*
X28395609Y53329820D01*
X28300371Y53186962D01*
X28205133Y53091724D01*
X28109895Y53044105D01*
X29062276Y53234581D02*
X29109895Y53282200D01*
X29205133Y53329820D01*
X29443228Y53329820D01*
X29538466Y53282200D01*
X29586085Y53234581D01*
X29633704Y53139343D01*
X29633704Y53044105D01*
X29586085Y52901248D01*
X29014657Y52329820D01*
X29633704Y52329820D01*
%TO.C,TP25*%
X48575980Y58231305D02*
X48575980Y58802734D01*
X49575980Y58517020D02*
X48575980Y58517020D01*
X49575980Y59136067D02*
X48575980Y59136067D01*
X48575980Y59517020D01*
X48623600Y59612258D01*
X48671219Y59659877D01*
X48766457Y59707496D01*
X48909314Y59707496D01*
X49004552Y59659877D01*
X49052171Y59612258D01*
X49099790Y59517020D01*
X49099790Y59136067D01*
X48671219Y60088448D02*
X48623600Y60136067D01*
X48575980Y60231305D01*
X48575980Y60469400D01*
X48623600Y60564639D01*
X48671219Y60612258D01*
X48766457Y60659877D01*
X48861695Y60659877D01*
X49004552Y60612258D01*
X49575980Y60040829D01*
X49575980Y60659877D01*
X48575980Y61564639D02*
X48575980Y61088448D01*
X49052171Y61040829D01*
X49004552Y61088448D01*
X48956933Y61183686D01*
X48956933Y61421781D01*
X49004552Y61517020D01*
X49052171Y61564639D01*
X49147409Y61612258D01*
X49385504Y61612258D01*
X49480742Y61564639D01*
X49528361Y61517020D01*
X49575980Y61421781D01*
X49575980Y61183686D01*
X49528361Y61088448D01*
X49480742Y61040829D01*
%TO.C,C5*%
X74712533Y83640658D02*
X74664914Y83593039D01*
X74522057Y83545420D01*
X74426819Y83545420D01*
X74283961Y83593039D01*
X74188723Y83688277D01*
X74141104Y83783515D01*
X74093485Y83973991D01*
X74093485Y84116848D01*
X74141104Y84307324D01*
X74188723Y84402562D01*
X74283961Y84497800D01*
X74426819Y84545420D01*
X74522057Y84545420D01*
X74664914Y84497800D01*
X74712533Y84450181D01*
X75617295Y84545420D02*
X75141104Y84545420D01*
X75093485Y84069229D01*
X75141104Y84116848D01*
X75236342Y84164467D01*
X75474438Y84164467D01*
X75569676Y84116848D01*
X75617295Y84069229D01*
X75664914Y83973991D01*
X75664914Y83735896D01*
X75617295Y83640658D01*
X75569676Y83593039D01*
X75474438Y83545420D01*
X75236342Y83545420D01*
X75141104Y83593039D01*
X75093485Y83640658D01*
%TO.C,TP33*%
X44489904Y82606420D02*
X45061333Y82606420D01*
X44775619Y81606420D02*
X44775619Y82606420D01*
X45394666Y81606420D02*
X45394666Y82606420D01*
X45775619Y82606420D01*
X45870857Y82558800D01*
X45918476Y82511181D01*
X45966095Y82415943D01*
X45966095Y82273086D01*
X45918476Y82177848D01*
X45870857Y82130229D01*
X45775619Y82082610D01*
X45394666Y82082610D01*
X46299428Y82606420D02*
X46918476Y82606420D01*
X46585142Y82225467D01*
X46728000Y82225467D01*
X46823238Y82177848D01*
X46870857Y82130229D01*
X46918476Y82034991D01*
X46918476Y81796896D01*
X46870857Y81701658D01*
X46823238Y81654039D01*
X46728000Y81606420D01*
X46442285Y81606420D01*
X46347047Y81654039D01*
X46299428Y81701658D01*
X47251809Y82606420D02*
X47870857Y82606420D01*
X47537523Y82225467D01*
X47680380Y82225467D01*
X47775619Y82177848D01*
X47823238Y82130229D01*
X47870857Y82034991D01*
X47870857Y81796896D01*
X47823238Y81701658D01*
X47775619Y81654039D01*
X47680380Y81606420D01*
X47394666Y81606420D01*
X47299428Y81654039D01*
X47251809Y81701658D01*
%TO.C,R9*%
X22275133Y60965820D02*
X21941800Y61442010D01*
X21703704Y60965820D02*
X21703704Y61965820D01*
X22084657Y61965820D01*
X22179895Y61918200D01*
X22227514Y61870581D01*
X22275133Y61775343D01*
X22275133Y61632486D01*
X22227514Y61537248D01*
X22179895Y61489629D01*
X22084657Y61442010D01*
X21703704Y61442010D01*
X22751323Y60965820D02*
X22941800Y60965820D01*
X23037038Y61013439D01*
X23084657Y61061058D01*
X23179895Y61203915D01*
X23227514Y61394391D01*
X23227514Y61775343D01*
X23179895Y61870581D01*
X23132276Y61918200D01*
X23037038Y61965820D01*
X22846561Y61965820D01*
X22751323Y61918200D01*
X22703704Y61870581D01*
X22656085Y61775343D01*
X22656085Y61537248D01*
X22703704Y61442010D01*
X22751323Y61394391D01*
X22846561Y61346772D01*
X23037038Y61346772D01*
X23132276Y61394391D01*
X23179895Y61442010D01*
X23227514Y61537248D01*
%TO.C,C9*%
X76820733Y36090858D02*
X76773114Y36043239D01*
X76630257Y35995620D01*
X76535019Y35995620D01*
X76392161Y36043239D01*
X76296923Y36138477D01*
X76249304Y36233715D01*
X76201685Y36424191D01*
X76201685Y36567048D01*
X76249304Y36757524D01*
X76296923Y36852762D01*
X76392161Y36948000D01*
X76535019Y36995620D01*
X76630257Y36995620D01*
X76773114Y36948000D01*
X76820733Y36900381D01*
X77296923Y35995620D02*
X77487400Y35995620D01*
X77582638Y36043239D01*
X77630257Y36090858D01*
X77725495Y36233715D01*
X77773114Y36424191D01*
X77773114Y36805143D01*
X77725495Y36900381D01*
X77677876Y36948000D01*
X77582638Y36995620D01*
X77392161Y36995620D01*
X77296923Y36948000D01*
X77249304Y36900381D01*
X77201685Y36805143D01*
X77201685Y36567048D01*
X77249304Y36471810D01*
X77296923Y36424191D01*
X77392161Y36376572D01*
X77582638Y36376572D01*
X77677876Y36424191D01*
X77725495Y36471810D01*
X77773114Y36567048D01*
D11*
%TO.C,TP14*%
X65589000Y28930600D02*
G75*
G03*
X65589000Y28930600I-1200000J0D01*
G01*
%TO.C,TP36*%
X93808400Y21310600D02*
G75*
G03*
X93808400Y21310600I-1200000J0D01*
G01*
%TO.C,U4*%
X87155800Y95122200D02*
X85505800Y95122200D01*
X87155800Y84842200D02*
X87155800Y95122200D01*
X81855800Y95122200D02*
X81855800Y84842200D01*
X81855800Y84842200D02*
X87155800Y84842200D01*
X83505800Y95122200D02*
X81855800Y95122200D01*
X83505800Y95122200D02*
G75*
G03*
X85505800Y95122200I1000000J0D01*
G01*
%TO.C,SW4*%
X92431800Y35920200D02*
X92431800Y33320200D01*
X92331800Y31370200D02*
X86331800Y31370200D01*
X84231800Y36920200D02*
X84231800Y37920200D01*
X84231800Y37920200D02*
X85231800Y37920200D01*
X92231800Y37870200D02*
X86431800Y37870200D01*
X86231800Y35920200D02*
X86231800Y33320200D01*
%TO.C,U3*%
X76701800Y42140200D02*
X76701800Y47440200D01*
X41021800Y47440200D02*
X41021800Y45790200D01*
X76701800Y47440200D02*
X41021800Y47440200D01*
X41021800Y42140200D02*
X76701800Y42140200D01*
X41021800Y43790200D02*
X41021800Y42140200D01*
X41021800Y43790200D02*
G75*
G03*
X41021800Y45790200I0J1000000D01*
G01*
%TO.C,Y2*%
X77221800Y100925200D02*
X77221800Y99125200D01*
X78621800Y99075200D02*
X79721800Y99075200D01*
X78621800Y100975200D02*
X79721800Y100975200D01*
%TO.C,TP15*%
X102190400Y37236400D02*
G75*
G03*
X102190400Y37236400I-1200000J0D01*
G01*
%TO.C,Y1*%
X61841800Y32070200D02*
X74441800Y32070200D01*
X74441800Y37170200D02*
X61841800Y37170200D01*
X74441800Y32070200D02*
X74441800Y37170200D01*
%TO.C,TP21*%
X28530400Y42341800D02*
G75*
G03*
X28530400Y42341800I-1200000J0D01*
G01*
%TO.C,TP20*%
X32569000Y49555400D02*
G75*
G03*
X32569000Y49555400I-1200000J0D01*
G01*
%TO.C,TP10*%
X44837200Y13208000D02*
G75*
G03*
X44837200Y13208000I-1200000J0D01*
G01*
%TO.C,D1*%
X99917300Y44216200D02*
X99917300Y42296200D01*
X99917300Y42296200D02*
X102602300Y42296200D01*
X102602300Y44216200D02*
X99917300Y44216200D01*
%TO.C,TP8*%
X47174000Y27940000D02*
G75*
G03*
X47174000Y27940000I-1200000J0D01*
G01*
%TO.C,SW1*%
X31471800Y35920200D02*
X31471800Y33320200D01*
X23271800Y37920200D02*
X24271800Y37920200D01*
X23271800Y36920200D02*
X23271800Y37920200D01*
X31371800Y31370200D02*
X25371800Y31370200D01*
X31271800Y37870200D02*
X25471800Y37870200D01*
X25271800Y35920200D02*
X25271800Y33320200D01*
%TO.C,SW2*%
X41051800Y24220200D02*
X41051800Y25220200D01*
X49151800Y18670200D02*
X43151800Y18670200D01*
X49051800Y25170200D02*
X43251800Y25170200D01*
X49251800Y23220200D02*
X49251800Y20620200D01*
X43051800Y23220200D02*
X43051800Y20620200D01*
X41051800Y25220200D02*
X42051800Y25220200D01*
%TO.C,SW3*%
X68451800Y23220200D02*
X68451800Y20620200D01*
X66451800Y24220200D02*
X66451800Y25220200D01*
X66451800Y25220200D02*
X67451800Y25220200D01*
X74651800Y23220200D02*
X74651800Y20620200D01*
X74451800Y25170200D02*
X68651800Y25170200D01*
X74551800Y18670200D02*
X68551800Y18670200D01*
%TO.C,TP2*%
X107372000Y57531000D02*
G75*
G03*
X107372000Y57531000I-1200000J0D01*
G01*
%TO.C,TP6*%
X88245800Y98069400D02*
G75*
G03*
X88245800Y98069400I-1200000J0D01*
G01*
%TO.C,TP24*%
X54032000Y103454200D02*
G75*
G03*
X54032000Y103454200I-1200000J0D01*
G01*
%TO.C,U2*%
X61036800Y88860200D02*
X58206800Y88860200D01*
X61036800Y89130200D02*
X61036800Y88860200D01*
X61036800Y82500200D02*
X59936800Y82500200D01*
X62536800Y89130200D02*
X61036800Y89130200D01*
X61036800Y82230200D02*
X61036800Y82500200D01*
X62536800Y82230200D02*
X61036800Y82230200D01*
%TO.C,TP34*%
X31934000Y71882000D02*
G75*
G03*
X31934000Y71882000I-1200000J0D01*
G01*
D10*
%TO.C,DS1*%
X84076800Y58015200D02*
X33626800Y58015200D01*
X84076800Y58015200D02*
X84076800Y77265200D01*
X33626800Y58015200D02*
X33626800Y77265200D01*
X84076800Y77265200D02*
X33626800Y77265200D01*
D12*
X51356800Y57415200D02*
G75*
G03*
X51356800Y57415200I-125000J0D01*
G01*
D11*
%TO.C,TP5*%
X60686800Y104597200D02*
G75*
G03*
X60686800Y104597200I-1200000J0D01*
G01*
%TO.C,U1*%
X97189800Y49287200D02*
X98839800Y49287200D01*
X98839800Y49287200D02*
X98839800Y79887200D01*
X93539800Y79887200D02*
X93539800Y49287200D01*
X98839800Y79887200D02*
X93539800Y79887200D01*
X93539800Y49287200D02*
X95189800Y49287200D01*
X97189800Y49287200D02*
G75*
G03*
X95189800Y49287200I-1000000J0D01*
G01*
%TO.C,TP25*%
X51263400Y55651400D02*
G75*
G03*
X51263400Y55651400I-1200000J0D01*
G01*
%TO.C,TP33*%
X47428000Y80060800D02*
G75*
G03*
X47428000Y80060800I-1200000J0D01*
G01*
%TD*%
%LPC*%
D13*
%TO.C,J3*%
X85267800Y50876200D03*
D14*
X82727800Y50876200D03*
X85267800Y48336200D03*
X82727800Y48336200D03*
X85267800Y45796200D03*
X82727800Y45796200D03*
%TD*%
D15*
%TO.C,R4*%
X90806800Y90703400D03*
X92506800Y90703400D03*
%TD*%
%TO.C,R2*%
X90488400Y93751400D03*
X92188400Y93751400D03*
%TD*%
%TO.C,C3*%
X57786800Y38227000D03*
X59486800Y38227000D03*
%TD*%
%TO.C,C2*%
X62866800Y91338400D03*
X64566800Y91338400D03*
%TD*%
D16*
%TO.C,H4*%
X4491800Y59080200D03*
%TD*%
D17*
%TO.C,TP14*%
X64389000Y28930600D03*
%TD*%
%TO.C,TP36*%
X92608400Y21310600D03*
%TD*%
D18*
%TO.C,U4*%
X80695800Y93792200D03*
D19*
X80695800Y91252200D03*
X80695800Y88712200D03*
X80695800Y86172200D03*
X88315800Y86172200D03*
X88315800Y88712200D03*
X88315800Y91252200D03*
X88315800Y93792200D03*
%TD*%
D20*
%TO.C,SW4*%
X85331800Y36870200D03*
X93331800Y36870200D03*
X85331800Y32370200D03*
X93331800Y32370200D03*
%TD*%
D15*
%TO.C,R11*%
X92711800Y42240200D03*
X94411800Y42240200D03*
%TD*%
D18*
%TO.C,U3*%
X42351800Y40980200D03*
D19*
X44891800Y40980200D03*
X47431800Y40980200D03*
X49971800Y40980200D03*
X52511800Y40980200D03*
X55051800Y40980200D03*
X57591800Y40980200D03*
X60131800Y40980200D03*
X62671800Y40980200D03*
X65211800Y40980200D03*
X67751800Y40980200D03*
X70291800Y40980200D03*
X72831800Y40980200D03*
X75371800Y40980200D03*
X75371800Y48600200D03*
X72831800Y48600200D03*
X70291800Y48600200D03*
X67751800Y48600200D03*
X65211800Y48600200D03*
X62671800Y48600200D03*
X60131800Y48600200D03*
X57591800Y48600200D03*
X55051800Y48600200D03*
X52511800Y48600200D03*
X49971800Y48600200D03*
X47431800Y48600200D03*
X44891800Y48600200D03*
X42351800Y48600200D03*
%TD*%
D15*
%TO.C,C6*%
X90004000Y64084200D03*
X88304000Y64084200D03*
%TD*%
D21*
%TO.C,Y2*%
X77921800Y100025200D03*
X80421800Y100025200D03*
%TD*%
D15*
%TO.C,C4*%
X51573800Y52908200D03*
X49873800Y52908200D03*
%TD*%
D17*
%TO.C,TP15*%
X100990400Y37236400D03*
%TD*%
D22*
%TO.C,Y1*%
X71991800Y34620200D03*
X63491800Y34620200D03*
%TD*%
D15*
%TO.C,R10*%
X59906800Y16205200D03*
X61606800Y16205200D03*
%TD*%
%TO.C,R7*%
X56653800Y27000200D03*
X54953800Y27000200D03*
%TD*%
D17*
%TO.C,TP21*%
X27330400Y42341800D03*
%TD*%
%TO.C,TP20*%
X31369000Y49555400D03*
%TD*%
%TO.C,TP10*%
X43637200Y13208000D03*
%TD*%
D23*
%TO.C,D1*%
X100664800Y43256200D03*
X102539800Y43256200D03*
%TD*%
D17*
%TO.C,TP8*%
X45974000Y27940000D03*
%TD*%
D20*
%TO.C,SW1*%
X24371800Y36870200D03*
X32371800Y36870200D03*
X24371800Y32370200D03*
X32371800Y32370200D03*
%TD*%
D15*
%TO.C,C11*%
X19901800Y44780200D03*
X21601800Y44780200D03*
%TD*%
D16*
%TO.C,H2*%
X113491800Y59080200D03*
%TD*%
D15*
%TO.C,C8*%
X37349800Y17348200D03*
X35649800Y17348200D03*
%TD*%
D20*
%TO.C,SW2*%
X42151800Y24170200D03*
X50151800Y24170200D03*
X42151800Y19670200D03*
X50151800Y19670200D03*
%TD*%
D16*
%TO.C,H3*%
X58991800Y4580200D03*
%TD*%
D20*
%TO.C,SW3*%
X67551800Y24170200D03*
X75551800Y24170200D03*
X67551800Y19670200D03*
X75551800Y19670200D03*
%TD*%
D24*
%TO.C,J1*%
X70931800Y100660200D03*
D25*
X68631800Y95360200D03*
X64931800Y97860200D03*
%TD*%
D17*
%TO.C,TP2*%
X106172000Y57531000D03*
%TD*%
D26*
%TO.C,C10*%
X58801000Y35560000D03*
X58801000Y33860000D03*
%TD*%
D16*
%TO.C,H1*%
X58991800Y113580200D03*
%TD*%
D17*
%TO.C,TP6*%
X87045800Y98069400D03*
%TD*%
D15*
%TO.C,C14*%
X24649800Y77292200D03*
X22949800Y77292200D03*
%TD*%
D17*
%TO.C,TP24*%
X52832000Y103454200D03*
%TD*%
D27*
%TO.C,U2*%
X59306800Y87960200D03*
D28*
X65606800Y85680200D03*
D27*
X59306800Y83400200D03*
%TD*%
D15*
%TO.C,R1*%
X88393800Y66319400D03*
X90093800Y66319400D03*
%TD*%
%TO.C,R3*%
X29387800Y23444200D03*
X31087800Y23444200D03*
%TD*%
%TO.C,R8*%
X23633800Y67132200D03*
X21933800Y67132200D03*
%TD*%
%TO.C,R6*%
X90513800Y25984200D03*
X92213800Y25984200D03*
%TD*%
D17*
%TO.C,TP34*%
X30734000Y71882000D03*
%TD*%
D15*
%TO.C,C1*%
X89927800Y61671200D03*
X88227800Y61671200D03*
%TD*%
D29*
%TO.C,DS1*%
X51231800Y60020200D03*
D30*
X53771800Y60020200D03*
X56311800Y60020200D03*
X58851800Y60020200D03*
X61391800Y60020200D03*
X63931800Y60020200D03*
X66471800Y60020200D03*
X66471800Y75260200D03*
X63931800Y75260200D03*
X61391800Y75260200D03*
X58851800Y75260200D03*
X56311800Y75260200D03*
X53771800Y75260200D03*
X51231800Y75260200D03*
%TD*%
D15*
%TO.C,C13*%
X18035800Y38684200D03*
X19735800Y38684200D03*
%TD*%
D17*
%TO.C,TP5*%
X59486800Y104597200D03*
%TD*%
D18*
%TO.C,U1*%
X99999800Y50617200D03*
D19*
X99999800Y53157200D03*
X99999800Y55697200D03*
X99999800Y58237200D03*
X99999800Y60777200D03*
X99999800Y63317200D03*
X99999800Y65857200D03*
X99999800Y68397200D03*
X99999800Y70937200D03*
X99999800Y73477200D03*
X99999800Y76017200D03*
X99999800Y78557200D03*
X92379800Y78557200D03*
X92379800Y76017200D03*
X92379800Y73477200D03*
X92379800Y70937200D03*
X92379800Y68397200D03*
X92379800Y65857200D03*
X92379800Y63317200D03*
X92379800Y60777200D03*
X92379800Y58237200D03*
X92379800Y55697200D03*
X92379800Y53157200D03*
X92379800Y50617200D03*
%TD*%
D15*
%TO.C,C12*%
X29221800Y54432200D03*
X27521800Y54432200D03*
%TD*%
D17*
%TO.C,TP25*%
X50063400Y55651400D03*
%TD*%
D15*
%TO.C,C5*%
X71133600Y83439000D03*
X72833600Y83439000D03*
%TD*%
D17*
%TO.C,TP33*%
X46228000Y80060800D03*
%TD*%
D15*
%TO.C,R9*%
X23291800Y63068200D03*
X21591800Y63068200D03*
%TD*%
%TO.C,C9*%
X76137400Y34798000D03*
X77837400Y34798000D03*
%TD*%
D31*
%TO.C,BT1*%
X52685486Y93040183D03*
D32*
X32195486Y93040183D03*
%TD*%
D13*
%TO.C,J2*%
X15036800Y68275200D03*
D14*
X15036800Y65735200D03*
X15036800Y63195200D03*
X15036800Y60655200D03*
X15036800Y58115200D03*
X15036800Y55575200D03*
%TD*%
M02*
