M48
; DRILL file {KiCad (6.0.5)} date Sat Jul 23 15:37:36 2022
; FORMAT={-:-/ absolute / inch / decimal}
; #@! TF.CreationDate,2022-07-23T15:37:36-04:00
; #@! TF.GenerationSoftware,Kicad,Pcbnew,(6.0.5)
; #@! TF.FileFunction,MixedPlating,1,2
FMAT,2
INCH
; #@! TA.AperFunction,Plated,PTH,ViaDrill
T1C0.0160
; #@! TA.AperFunction,Plated,PTH,ComponentDrill
T2C0.0315
; #@! TA.AperFunction,Plated,PTH,ComponentDrill
T3C0.0354
; #@! TA.AperFunction,Plated,PTH,ComponentDrill
T4C0.0394
; #@! TA.AperFunction,Plated,PTH,ComponentDrill
T5C0.0591
; #@! TA.AperFunction,NonPlated,NPTH,ComponentDrill
T6C0.1260
%
G90
G05
T1
X0.697Y3.623
X0.777Y1.469
X0.7833Y2.5893
X0.908Y1.763
X0.96Y1.51
X1.137Y2.043
X1.255Y1.517
X1.4068Y1.6128
X1.718Y0.678
X1.897Y1.783
X2.097Y3.423
X2.097Y0.943
X2.137Y3.463
X2.157Y3.503
X2.157Y2.623
X2.2382Y3.2605
X2.259Y1.332
X2.297Y3.3422
X2.297Y1.003
X2.337Y3.363
X2.497Y1.783
X2.61Y3.571
X2.845Y3.375
X3.017Y1.743
X3.057Y3.763
X3.057Y2.683
X3.07Y0.949
X3.157Y1.369
X3.268Y1.461
X3.317Y2.623
X3.357Y1.563
X3.417Y2.823
X3.429Y2.395
X3.457Y2.343
X3.4672Y1.6732
X3.497Y1.603
X3.525Y2.243
X3.549Y2.203
X3.557Y2.823
X3.917Y1.643
X4.037Y2.563
T2
X1.6674Y1.9134
X1.6674Y1.6134
X1.7674Y1.9134
X1.7674Y1.6134
X1.8674Y1.9134
X1.8674Y1.6134
X1.9674Y1.9134
X1.9674Y1.6134
X2.0674Y1.9134
X2.0674Y1.6134
X2.1674Y1.9134
X2.1674Y1.6134
X2.2674Y1.9134
X2.2674Y1.6134
X2.3674Y1.9134
X2.3674Y1.6134
X2.4674Y1.9134
X2.4674Y1.6134
X2.5674Y1.9134
X2.5674Y1.6134
X2.6674Y1.9134
X2.6674Y1.6134
X2.7674Y1.9134
X2.7674Y1.6134
X2.8674Y1.9134
X2.8674Y1.6134
X2.9674Y1.9134
X2.9674Y1.6134
X3.177Y3.6926
X3.177Y3.5926
X3.177Y3.4926
X3.177Y3.3926
X3.477Y3.6926
X3.477Y3.5926
X3.477Y3.4926
X3.477Y3.3926
X3.637Y3.0928
X3.637Y2.9928
X3.637Y2.8928
X3.637Y2.7928
X3.637Y2.6928
X3.637Y2.5928
X3.637Y2.4928
X3.637Y2.3928
X3.637Y2.2928
X3.637Y2.1928
X3.637Y2.0928
X3.637Y1.9928
X3.937Y3.0928
X3.937Y2.9928
X3.937Y2.8928
X3.937Y2.7928
X3.937Y2.6928
X3.937Y2.5928
X3.937Y2.4928
X3.937Y2.3928
X3.937Y2.2928
X3.937Y2.1928
X3.937Y2.0928
X3.937Y1.9928
T3
X2.017Y2.963
X2.017Y2.363
X2.117Y2.963
X2.117Y2.363
X2.217Y2.963
X2.217Y2.363
X2.317Y2.963
X2.317Y2.363
X2.417Y2.963
X2.417Y2.363
X2.517Y2.963
X2.517Y2.363
X2.617Y2.963
X2.617Y2.363
T4
X0.592Y2.688
X0.592Y2.588
X0.592Y2.488
X0.592Y2.388
X0.592Y2.288
X0.592Y2.188
X1.076Y1.667
X1.21Y2.83
X1.235Y1.951
X1.718Y0.52
X1.81Y1.1
X1.82Y3.152
X1.971Y2.191
X2.08Y4.073
X2.342Y4.118
X2.535Y1.139
X3.257Y2.003
X3.257Y1.903
X3.257Y1.803
X3.357Y2.003
X3.357Y1.903
X3.357Y1.803
X3.427Y3.861
X3.646Y0.839
X3.976Y1.466
X4.18Y2.265
T5
X1.2675Y3.663
X2.0742Y3.663
T6
X0.1768Y2.326
X2.3225Y4.4717
X2.3225Y0.1803
X4.4682Y2.326
T4
G00X2.5957Y3.8528
M15
G01X2.517Y3.8528
M16
G05
G00X2.7414Y3.7543
M15
G01X2.6627Y3.7543
M16
G05
G00X2.7926Y3.9138
M15
G01X2.7926Y4.0122
M16
G05
T0
M30
