%TF.GenerationSoftware,KiCad,Pcbnew,(6.0.5)*%
%TF.CreationDate,2022-07-23T15:35:45-04:00*%
%TF.ProjectId,circle_clock_design,63697263-6c65-45f6-936c-6f636b5f6465,rev?*%
%TF.SameCoordinates,PX56cacc8PY97b5f08*%
%TF.FileFunction,Legend,Bot*%
%TF.FilePolarity,Positive*%
%FSLAX46Y46*%
G04 Gerber Fmt 4.6, Leading zero omitted, Abs format (unit mm)*
G04 Created by KiCad (PCBNEW (6.0.5)) date 2022-07-23 15:35:45*
%MOMM*%
%LPD*%
G01*
G04 APERTURE LIST*
G04 Aperture macros list*
%AMRoundRect*
0 Rectangle with rounded corners*
0 $1 Rounding radius*
0 $2 $3 $4 $5 $6 $7 $8 $9 X,Y pos of 4 corners*
0 Add a 4 corners polygon primitive as box body*
4,1,4,$2,$3,$4,$5,$6,$7,$8,$9,$2,$3,0*
0 Add four circle primitives for the rounded corners*
1,1,$1+$1,$2,$3*
1,1,$1+$1,$4,$5*
1,1,$1+$1,$6,$7*
1,1,$1+$1,$8,$9*
0 Add four rect primitives between the rounded corners*
20,1,$1+$1,$2,$3,$4,$5,0*
20,1,$1+$1,$4,$5,$6,$7,0*
20,1,$1+$1,$6,$7,$8,$9,0*
20,1,$1+$1,$8,$9,$2,$3,0*%
G04 Aperture macros list end*
%ADD10C,0.150000*%
%ADD11C,0.120000*%
%ADD12R,1.700000X1.700000*%
%ADD13O,1.700000X1.700000*%
%ADD14C,3.200000*%
%ADD15C,2.000000*%
%ADD16R,1.600000X1.600000*%
%ADD17O,1.600000X1.600000*%
%ADD18RoundRect,0.500000X0.500000X-1.750000X0.500000X1.750000X-0.500000X1.750000X-0.500000X-1.750000X0*%
%ADD19RoundRect,0.500000X1.500000X0.500000X-1.500000X0.500000X-1.500000X-0.500000X1.500000X-0.500000X0*%
%ADD20R,1.400000X1.400000*%
%ADD21C,1.400000*%
%ADD22R,3.000000X3.000000*%
%ADD23C,3.000000*%
G04 APERTURE END LIST*
D10*
%TO.C,J3*%
X84331133Y53753820D02*
X84331133Y53039534D01*
X84378752Y52896677D01*
X84473990Y52801439D01*
X84616847Y52753820D01*
X84712085Y52753820D01*
X83950180Y53753820D02*
X83331133Y53753820D01*
X83664466Y53372867D01*
X83521609Y53372867D01*
X83426371Y53325248D01*
X83378752Y53277629D01*
X83331133Y53182391D01*
X83331133Y52944296D01*
X83378752Y52849058D01*
X83426371Y52801439D01*
X83521609Y52753820D01*
X83807323Y52753820D01*
X83902561Y52801439D01*
X83950180Y52849058D01*
%TO.C,J1*%
X67765133Y106207820D02*
X67765133Y105493534D01*
X67812752Y105350677D01*
X67907990Y105255439D01*
X68050847Y105207820D01*
X68146085Y105207820D01*
X66765133Y105207820D02*
X67336561Y105207820D01*
X67050847Y105207820D02*
X67050847Y106207820D01*
X67146085Y106064962D01*
X67241323Y105969724D01*
X67336561Y105922105D01*
%TO.C,BT1*%
X54721200Y97611612D02*
X54578343Y97563993D01*
X54530724Y97516374D01*
X54483105Y97421136D01*
X54483105Y97278279D01*
X54530724Y97183041D01*
X54578343Y97135422D01*
X54673581Y97087803D01*
X55054533Y97087803D01*
X55054533Y98087803D01*
X54721200Y98087803D01*
X54625962Y98040183D01*
X54578343Y97992564D01*
X54530724Y97897326D01*
X54530724Y97802088D01*
X54578343Y97706850D01*
X54625962Y97659231D01*
X54721200Y97611612D01*
X55054533Y97611612D01*
X54197390Y98087803D02*
X53625962Y98087803D01*
X53911676Y97087803D02*
X53911676Y98087803D01*
X52768819Y97087803D02*
X53340247Y97087803D01*
X53054533Y97087803D02*
X53054533Y98087803D01*
X53149771Y97944945D01*
X53245009Y97849707D01*
X53340247Y97802088D01*
X50506914Y92933041D02*
X49364057Y92933041D01*
X49935486Y92361612D02*
X49935486Y93504469D01*
%TO.C,J2*%
X15370133Y71152820D02*
X15370133Y70438534D01*
X15417752Y70295677D01*
X15512990Y70200439D01*
X15655847Y70152820D01*
X15751085Y70152820D01*
X14941561Y71057581D02*
X14893942Y71105200D01*
X14798704Y71152820D01*
X14560609Y71152820D01*
X14465371Y71105200D01*
X14417752Y71057581D01*
X14370133Y70962343D01*
X14370133Y70867105D01*
X14417752Y70724248D01*
X14989180Y70152820D01*
X14370133Y70152820D01*
D11*
%TO.C,J3*%
X86597800Y49606200D02*
X83997800Y49606200D01*
X86597800Y50876200D02*
X86597800Y52206200D01*
X86597800Y44466200D02*
X81397800Y44466200D01*
X81397800Y52206200D02*
X81397800Y44466200D01*
X86597800Y49606200D02*
X86597800Y44466200D01*
X86597800Y52206200D02*
X85267800Y52206200D01*
X83997800Y49606200D02*
X83997800Y52206200D01*
X83997800Y52206200D02*
X81397800Y52206200D01*
%TO.C,J1*%
X62931800Y94160200D02*
X62931800Y96910200D01*
X71931800Y94160200D02*
X62931800Y94160200D01*
X71931800Y104860200D02*
X71931800Y102910200D01*
X62931800Y104860200D02*
X62931800Y98910200D01*
X71931800Y94160200D02*
X71931800Y98410200D01*
X71931800Y104860200D02*
X62931800Y104860200D01*
X67431800Y97460200D02*
G75*
G03*
X69694542Y98397458I2J3199997D01*
G01*
X69631800Y102960200D02*
G75*
G03*
X64565555Y99276495I-2200000J-2300000D01*
G01*
%TO.C,BT1*%
X54735486Y95540183D02*
X54735486Y90540183D01*
X51735486Y96090183D02*
X54185486Y96090183D01*
X54185486Y89990183D02*
X51735486Y89990183D01*
X51735486Y89990183D02*
G75*
G03*
X51030717Y89496698I0J-750000D01*
G01*
X54735486Y95540183D02*
G75*
G03*
X54185486Y96090183I-549999J1D01*
G01*
X51035486Y96560183D02*
G75*
G03*
X27422043Y92524192I-11550000J-3520000D01*
G01*
X51030717Y96583668D02*
G75*
G03*
X51735486Y96090183I704769J256515D01*
G01*
X54185486Y89990183D02*
G75*
G03*
X54735486Y90540183I1J549999D01*
G01*
X27422043Y93556174D02*
G75*
G03*
X51035486Y89520183I12063443J-515991D01*
G01*
%TO.C,J2*%
X13706800Y67005200D02*
X13706800Y54245200D01*
X16366800Y54245200D02*
X13706800Y54245200D01*
X16366800Y67005200D02*
X13706800Y67005200D01*
X16366800Y67005200D02*
X16366800Y54245200D01*
X16366800Y69605200D02*
X15036800Y69605200D01*
X16366800Y68275200D02*
X16366800Y69605200D01*
%TD*%
%LPC*%
D12*
%TO.C,J3*%
X85267800Y50876200D03*
D13*
X82727800Y50876200D03*
X85267800Y48336200D03*
X82727800Y48336200D03*
X85267800Y45796200D03*
X82727800Y45796200D03*
%TD*%
D14*
%TO.C,H4*%
X4491800Y59080200D03*
%TD*%
D15*
%TO.C,TP14*%
X64389000Y28930600D03*
%TD*%
%TO.C,TP36*%
X92608400Y21310600D03*
%TD*%
D16*
%TO.C,U4*%
X80695800Y93792200D03*
D17*
X80695800Y91252200D03*
X80695800Y88712200D03*
X80695800Y86172200D03*
X88315800Y86172200D03*
X88315800Y88712200D03*
X88315800Y91252200D03*
X88315800Y93792200D03*
%TD*%
D16*
%TO.C,U3*%
X42351800Y40980200D03*
D17*
X44891800Y40980200D03*
X47431800Y40980200D03*
X49971800Y40980200D03*
X52511800Y40980200D03*
X55051800Y40980200D03*
X57591800Y40980200D03*
X60131800Y40980200D03*
X62671800Y40980200D03*
X65211800Y40980200D03*
X67751800Y40980200D03*
X70291800Y40980200D03*
X72831800Y40980200D03*
X75371800Y40980200D03*
X75371800Y48600200D03*
X72831800Y48600200D03*
X70291800Y48600200D03*
X67751800Y48600200D03*
X65211800Y48600200D03*
X62671800Y48600200D03*
X60131800Y48600200D03*
X57591800Y48600200D03*
X55051800Y48600200D03*
X52511800Y48600200D03*
X49971800Y48600200D03*
X47431800Y48600200D03*
X44891800Y48600200D03*
X42351800Y48600200D03*
%TD*%
D15*
%TO.C,TP15*%
X100990400Y37236400D03*
%TD*%
%TO.C,TP21*%
X27330400Y42341800D03*
%TD*%
%TO.C,TP20*%
X31369000Y49555400D03*
%TD*%
%TO.C,TP10*%
X43637200Y13208000D03*
%TD*%
%TO.C,TP8*%
X45974000Y27940000D03*
%TD*%
D14*
%TO.C,H2*%
X113491800Y59080200D03*
%TD*%
%TO.C,H3*%
X58991800Y4580200D03*
%TD*%
D18*
%TO.C,J1*%
X70931800Y100660200D03*
D19*
X68631800Y95360200D03*
X64931800Y97860200D03*
%TD*%
D15*
%TO.C,TP2*%
X106172000Y57531000D03*
%TD*%
D14*
%TO.C,H1*%
X58991800Y113580200D03*
%TD*%
D15*
%TO.C,TP6*%
X87045800Y98069400D03*
%TD*%
%TO.C,TP24*%
X52832000Y103454200D03*
%TD*%
%TO.C,TP34*%
X30734000Y71882000D03*
%TD*%
D20*
%TO.C,DS1*%
X51231800Y60020200D03*
D21*
X53771800Y60020200D03*
X56311800Y60020200D03*
X58851800Y60020200D03*
X61391800Y60020200D03*
X63931800Y60020200D03*
X66471800Y60020200D03*
X66471800Y75260200D03*
X63931800Y75260200D03*
X61391800Y75260200D03*
X58851800Y75260200D03*
X56311800Y75260200D03*
X53771800Y75260200D03*
X51231800Y75260200D03*
%TD*%
D15*
%TO.C,TP5*%
X59486800Y104597200D03*
%TD*%
D16*
%TO.C,U1*%
X99999800Y50617200D03*
D17*
X99999800Y53157200D03*
X99999800Y55697200D03*
X99999800Y58237200D03*
X99999800Y60777200D03*
X99999800Y63317200D03*
X99999800Y65857200D03*
X99999800Y68397200D03*
X99999800Y70937200D03*
X99999800Y73477200D03*
X99999800Y76017200D03*
X99999800Y78557200D03*
X92379800Y78557200D03*
X92379800Y76017200D03*
X92379800Y73477200D03*
X92379800Y70937200D03*
X92379800Y68397200D03*
X92379800Y65857200D03*
X92379800Y63317200D03*
X92379800Y60777200D03*
X92379800Y58237200D03*
X92379800Y55697200D03*
X92379800Y53157200D03*
X92379800Y50617200D03*
%TD*%
D15*
%TO.C,TP25*%
X50063400Y55651400D03*
%TD*%
%TO.C,TP33*%
X46228000Y80060800D03*
%TD*%
D22*
%TO.C,BT1*%
X52685486Y93040183D03*
D23*
X32195486Y93040183D03*
%TD*%
D12*
%TO.C,J2*%
X15036800Y68275200D03*
D13*
X15036800Y65735200D03*
X15036800Y63195200D03*
X15036800Y60655200D03*
X15036800Y58115200D03*
X15036800Y55575200D03*
%TD*%
M02*
