%TF.GenerationSoftware,KiCad,Pcbnew,(6.0.5)*%
%TF.CreationDate,2022-07-23T15:35:45-04:00*%
%TF.ProjectId,circle_clock_design,63697263-6c65-45f6-936c-6f636b5f6465,rev?*%
%TF.SameCoordinates,PX56cacc8PY97b5f08*%
%TF.FileFunction,Paste,Top*%
%TF.FilePolarity,Positive*%
%FSLAX46Y46*%
G04 Gerber Fmt 4.6, Leading zero omitted, Abs format (unit mm)*
G04 Created by KiCad (PCBNEW (6.0.5)) date 2022-07-23 15:35:45*
%MOMM*%
%LPD*%
G01*
G04 APERTURE LIST*
G04 Aperture macros list*
%AMRoundRect*
0 Rectangle with rounded corners*
0 $1 Rounding radius*
0 $2 $3 $4 $5 $6 $7 $8 $9 X,Y pos of 4 corners*
0 Add a 4 corners polygon primitive as box body*
4,1,4,$2,$3,$4,$5,$6,$7,$8,$9,$2,$3,0*
0 Add four circle primitives for the rounded corners*
1,1,$1+$1,$2,$3*
1,1,$1+$1,$4,$5*
1,1,$1+$1,$6,$7*
1,1,$1+$1,$8,$9*
0 Add four rect primitives between the rounded corners*
20,1,$1+$1,$2,$3,$4,$5,0*
20,1,$1+$1,$4,$5,$6,$7,0*
20,1,$1+$1,$6,$7,$8,$9,0*
20,1,$1+$1,$8,$9,$2,$3,0*%
G04 Aperture macros list end*
%ADD10R,1.150000X1.400000*%
%ADD11R,1.600000X1.400000*%
%ADD12R,1.000000X1.800000*%
%ADD13R,4.500000X2.000000*%
%ADD14RoundRect,0.243750X-0.243750X-0.456250X0.243750X-0.456250X0.243750X0.456250X-0.243750X0.456250X0*%
%ADD15R,1.400000X1.150000*%
%ADD16R,3.050000X2.750000*%
%ADD17R,2.200000X1.200000*%
G04 APERTURE END LIST*
D10*
%TO.C,R4*%
X90806800Y90703400D03*
X92506800Y90703400D03*
%TD*%
%TO.C,R2*%
X90488400Y93751400D03*
X92188400Y93751400D03*
%TD*%
%TO.C,C3*%
X57786800Y38227000D03*
X59486800Y38227000D03*
%TD*%
%TO.C,C2*%
X62866800Y91338400D03*
X64566800Y91338400D03*
%TD*%
D11*
%TO.C,SW4*%
X85331800Y36870200D03*
X93331800Y36870200D03*
X85331800Y32370200D03*
X93331800Y32370200D03*
%TD*%
D10*
%TO.C,R11*%
X92711800Y42240200D03*
X94411800Y42240200D03*
%TD*%
%TO.C,C6*%
X90004000Y64084200D03*
X88304000Y64084200D03*
%TD*%
D12*
%TO.C,Y2*%
X77921800Y100025200D03*
X80421800Y100025200D03*
%TD*%
D10*
%TO.C,C4*%
X51573800Y52908200D03*
X49873800Y52908200D03*
%TD*%
D13*
%TO.C,Y1*%
X71991800Y34620200D03*
X63491800Y34620200D03*
%TD*%
D10*
%TO.C,R10*%
X59906800Y16205200D03*
X61606800Y16205200D03*
%TD*%
%TO.C,R7*%
X56653800Y27000200D03*
X54953800Y27000200D03*
%TD*%
D14*
%TO.C,D1*%
X100664800Y43256200D03*
X102539800Y43256200D03*
%TD*%
D11*
%TO.C,SW1*%
X24371800Y36870200D03*
X32371800Y36870200D03*
X24371800Y32370200D03*
X32371800Y32370200D03*
%TD*%
D10*
%TO.C,C11*%
X19901800Y44780200D03*
X21601800Y44780200D03*
%TD*%
%TO.C,C8*%
X37349800Y17348200D03*
X35649800Y17348200D03*
%TD*%
D11*
%TO.C,SW2*%
X42151800Y24170200D03*
X50151800Y24170200D03*
X42151800Y19670200D03*
X50151800Y19670200D03*
%TD*%
%TO.C,SW3*%
X67551800Y24170200D03*
X75551800Y24170200D03*
X67551800Y19670200D03*
X75551800Y19670200D03*
%TD*%
D15*
%TO.C,C10*%
X58801000Y35560000D03*
X58801000Y33860000D03*
%TD*%
D10*
%TO.C,C14*%
X24649800Y77292200D03*
X22949800Y77292200D03*
%TD*%
D16*
%TO.C,U2*%
X67281800Y84155200D03*
X63931800Y87205200D03*
X63931800Y84155200D03*
X67281800Y87205200D03*
D17*
X59306800Y87960200D03*
X59306800Y83400200D03*
%TD*%
D10*
%TO.C,R1*%
X88393800Y66319400D03*
X90093800Y66319400D03*
%TD*%
%TO.C,R3*%
X29387800Y23444200D03*
X31087800Y23444200D03*
%TD*%
%TO.C,R8*%
X23633800Y67132200D03*
X21933800Y67132200D03*
%TD*%
%TO.C,R6*%
X90513800Y25984200D03*
X92213800Y25984200D03*
%TD*%
%TO.C,C1*%
X89927800Y61671200D03*
X88227800Y61671200D03*
%TD*%
%TO.C,C13*%
X18035800Y38684200D03*
X19735800Y38684200D03*
%TD*%
%TO.C,C12*%
X29221800Y54432200D03*
X27521800Y54432200D03*
%TD*%
%TO.C,C5*%
X71133600Y83439000D03*
X72833600Y83439000D03*
%TD*%
%TO.C,R9*%
X23291800Y63068200D03*
X21591800Y63068200D03*
%TD*%
%TO.C,C9*%
X76137400Y34798000D03*
X77837400Y34798000D03*
%TD*%
M02*
